Coordinates
version=1
nRows=33
nColumns=30
inDegrees=yes

Units are S.I. units (second, meters, Newtons, ...)
Angles are in degrees.

endheader
time	floatyaw	floatroll	floatpitch	floatx	floaty	floatz	pro_sup_l	deviation_l	flexion_l	cmc_flexion_l	cmc_abduction_l	mp_flexion_l	ip_flexion_l	2mcp_flexion_l	2mcp_abduction_l	2pm_flexion_l	2md_flexion_l	3mcp_flexion_l	3mcp_abduction_l	3pm_flexion_l	3md_flexion_l	4mcp_flexion_l	4mcp_abduction_l	4pm_flexion_l	4md_flexion_l	5mcp_flexion_l	5mcp_abduction_l	5pm_flexion_l	5md_flexion_l
19.500000	-1.089067	-4.156866	93.821839	0.141185	-0.259499	0.131214	86.559683	16.321368	10.037673	-3.694175	31.102513	-21.844198	-32.370735	61.185500	10.524987	25.910901	20.954554	55.721990	6.606714	37.468655	66.909600	43.556960	-6.565260	50.416848	61.868683	26.746580	-7.580520	43.517080	39.235733
19.533333	-1.089067	-4.156866	93.821839	0.141185	-0.259499	0.131214	86.559683	16.321368	10.037673	-3.694175	31.102513	-21.844198	-32.370735	61.185500	10.524987	25.910901	20.954554	55.721990	6.606714	37.468655	66.909600	43.556960	-6.565260	50.416848	61.868683	26.746580	-7.580520	43.517080	39.235733
19.566667	-1.089067	-4.156866	93.821839	0.141185	-0.259499	0.131214	86.559683	16.321368	10.037673	-3.694175	31.102513	-21.844198	-32.370735	61.185500	10.524987	25.910901	20.954554	55.721990	6.606714	37.468655	66.909600	43.556960	-6.565260	50.416848	61.868683	26.746580	-7.580520	43.517080	39.235733
19.600000	-1.089067	-4.156866	93.821839	0.141185	-0.259499	0.131214	86.559683	16.321368	10.037673	-3.694175	31.102513	-21.844198	-32.370735	61.185500	10.524987	25.910901	20.954554	55.721990	6.606714	37.468655	66.909600	43.556960	-6.565260	50.416848	61.868683	26.746580	-7.580520	43.517080	39.235733
19.633333	-1.089067	-4.156866	93.821839	0.141185	-0.259499	0.131214	86.559683	16.321368	10.037673	-3.694175	31.102513	-21.844198	-32.370735	61.185500	10.524987	25.910901	20.954554	55.721990	6.606714	37.468655	66.909600	43.556960	-6.565260	50.416848	61.868683	26.746580	-7.580520	43.517080	39.235733
19.666667	-1.089067	-4.156866	93.821839	0.141185	-0.259499	0.131214	86.559683	16.321368	10.037673	-3.694175	31.102513	-21.844198	-32.370735	61.185500	10.524987	25.910901	20.954554	55.721990	6.606714	37.468655	66.909600	43.556960	-6.565260	50.416848	61.868683	26.746580	-7.580520	43.517080	39.235733
19.700000	-1.089067	-4.156866	93.821839	0.141185	-0.259499	0.131214	86.559683	16.321368	10.037673	-3.694175	31.102513	-21.844198	-32.370735	61.185500	10.524987	25.910901	20.954554	55.721990	6.606714	37.468655	66.909600	43.556960	-6.565260	50.416848	61.868683	26.746580	-7.580520	43.517080	39.235733
19.733333	-1.089067	-4.156866	93.821839	0.141185	-0.259499	0.131214	86.559683	16.321368	10.037673	-3.694175	31.102513	-21.844198	-32.370735	61.185500	10.524987	25.910901	20.954554	55.721990	6.606714	37.468655	66.909600	43.556960	-6.565260	50.416848	61.868683	26.746580	-7.580520	43.517080	39.235733
19.766667	-1.089067	-4.156866	93.821839	0.141185	-0.259499	0.131214	86.559683	16.321368	10.037673	-3.694175	31.102513	-21.844198	-32.370735	61.185500	10.524987	25.910901	20.954554	55.721990	6.606714	37.468655	66.909600	43.556960	-6.565260	50.416848	61.868683	26.746580	-7.580520	43.517080	39.235733
19.800000	-1.089067	-4.156866	93.821839	0.141185	-0.259499	0.131214	86.559683	16.321368	10.037673	-3.694175	31.102513	-21.844198	-32.370735	61.185500	10.524987	25.910901	20.954554	55.721990	6.606714	37.468655	66.909600	43.556960	-6.565260	50.416848	61.868683	26.746580	-7.580520	43.517080	39.235733
19.833333	-1.089067	-4.156866	93.821839	0.141185	-0.259499	0.131214	86.559683	16.321368	10.037673	-3.694175	31.102513	-21.844198	-32.370735	61.185500	10.524987	25.910901	20.954554	55.721990	6.606714	37.468655	66.909600	43.556960	-6.565260	50.416848	61.868683	26.746580	-7.580520	43.517080	39.235733
19.866667	-1.089067	-4.156866	93.821839	0.141185	-0.259499	0.131214	86.559683	16.321368	10.037673	-3.694175	31.102513	-21.844198	-32.370735	61.185500	10.524987	25.910901	20.954554	55.721990	6.606714	37.468655	66.909600	43.556960	-6.565260	50.416848	61.868683	26.746580	-7.580520	43.517080	39.235733
19.900000	-1.089067	-4.156866	93.821839	0.141185	-0.259499	0.131214	86.559683	16.321368	10.037673	-3.694175	31.102513	-21.844198	-32.370735	61.185500	10.524987	25.910901	20.954554	55.721990	6.606714	37.468655	66.909600	43.556960	-6.565260	50.416848	61.868683	26.746580	-7.580520	43.517080	39.235733
19.933333	-1.089067	-4.156866	93.821839	0.141185	-0.259499	0.131214	86.559683	16.321368	10.037673	-3.694175	31.102513	-21.844198	-32.370735	61.185500	10.524987	25.910901	20.954554	55.721990	6.606714	37.468655	66.909600	43.556960	-6.565260	50.416848	61.868683	26.746580	-7.580520	43.517080	39.235733
19.966667	-1.089067	-4.156866	93.821839	0.141185	-0.259499	0.131214	86.559683	16.321368	10.037673	-3.694175	31.102513	-21.844198	-32.370735	61.185500	10.524987	25.910901	20.954554	55.721990	6.606714	37.468655	66.909600	43.556960	-6.565260	50.416848	61.868683	26.746580	-7.580520	43.517080	39.235733
20.000000	-0.845308	-4.283240	94.249796	0.155858	-0.265991	0.151070	102.492639	19.860428	16.268416	-2.385343	39.095094	-16.620964	-36.765128	63.341022	13.231770	29.283702	39.530979	53.946572	7.510211	38.062523	59.054587	33.962892	-6.725274	73.709486	71.127497	26.285942	-9.227761	82.014617	57.634765
20.033333	-0.845308	-4.283240	94.249796	0.155858	-0.265991	0.151070	102.492639	19.860428	16.268416	-2.385343	39.095094	-16.620964	-36.765128	63.341022	13.231770	29.283702	39.530979	53.946572	7.510211	38.062523	59.054587	33.962892	-6.725274	73.709486	71.127497	26.285942	-9.227761	82.014617	57.634765
20.066667	-0.845308	-4.283240	94.249796	0.155858	-0.265991	0.151070	102.492639	19.860428	16.268416	-2.385343	39.095094	-16.620964	-36.765128	63.341022	13.231770	29.283702	39.530979	53.946572	7.510211	38.062523	59.054587	33.962892	-6.725274	73.709486	71.127497	26.285942	-9.227761	82.014617	57.634765
20.100000	-0.845308	-4.283240	94.249796	0.155858	-0.265991	0.151070	102.492639	19.860428	16.268416	-2.385343	39.095094	-16.620964	-36.765128	63.341022	13.231770	29.283702	39.530979	53.946572	7.510211	38.062523	59.054587	33.962892	-6.725274	73.709486	71.127497	26.285942	-9.227761	82.014617	57.634765
20.133333	-0.845308	-4.283240	94.249796	0.155858	-0.265991	0.151070	102.492639	19.860428	16.268416	-2.385343	39.095094	-16.620964	-36.765128	63.341022	13.231770	29.283702	39.530979	53.946572	7.510211	38.062523	59.054587	33.962892	-6.725274	73.709486	71.127497	26.285942	-9.227761	82.014617	57.634765
20.166667	-0.845308	-4.283240	94.249796	0.155858	-0.265991	0.151070	102.492639	19.860428	16.268416	-2.385343	39.095094	-16.620964	-36.765128	63.341022	13.231770	29.283702	39.530979	53.946572	7.510211	38.062523	59.054587	33.962892	-6.725274	73.709486	71.127497	26.285942	-9.227761	82.014617	57.634765
20.200000	-0.845308	-4.283240	94.249796	0.155858	-0.265991	0.151070	102.492639	19.860428	16.268416	-2.385343	39.095094	-16.620964	-36.765128	63.341022	13.231770	29.283702	39.530979	53.946572	7.510211	38.062523	59.054587	33.962892	-6.725274	73.709486	71.127497	26.285942	-9.227761	82.014617	57.634765
20.233333	-0.845308	-4.283240	94.249796	0.155858	-0.265991	0.151070	102.492639	19.860428	16.268416	-2.385343	39.095094	-16.620964	-36.765128	63.341022	13.231770	29.283702	39.530979	53.946572	7.510211	38.062523	59.054587	33.962892	-6.725274	73.709486	71.127497	26.285942	-9.227761	82.014617	57.634765
20.266667	-0.845308	-4.283240	94.249796	0.155858	-0.265991	0.151070	102.492639	19.860428	16.268416	-2.385343	39.095094	-16.620964	-36.765128	63.341022	13.231770	29.283702	39.530979	53.946572	7.510211	38.062523	59.054587	33.962892	-6.725274	73.709486	71.127497	26.285942	-9.227761	82.014617	57.634765
20.300000	-0.845308	-4.283240	94.249796	0.155858	-0.265991	0.151070	102.492639	19.860428	16.268416	-2.385343	39.095094	-16.620964	-36.765128	63.341022	13.231770	29.283702	39.530979	53.946572	7.510211	38.062523	59.054587	33.962892	-6.725274	73.709486	71.127497	26.285942	-9.227761	82.014617	57.634765
20.333333	-0.845308	-4.283240	94.249796	0.155858	-0.265991	0.151070	102.492639	19.860428	16.268416	-2.385343	39.095094	-16.620964	-36.765128	63.341022	13.231770	29.283702	39.530979	53.946572	7.510211	38.062523	59.054587	33.962892	-6.725274	73.709486	71.127497	26.285942	-9.227761	82.014617	57.634765
20.366667	-0.845308	-4.283240	94.249796	0.155858	-0.265991	0.151070	102.492639	19.860428	16.268416	-2.385343	39.095094	-16.620964	-36.765128	63.341022	13.231770	29.283702	39.530979	53.946572	7.510211	38.062523	59.054587	33.962892	-6.725274	73.709486	71.127497	26.285942	-9.227761	82.014617	57.634765
20.400000	-0.845308	-4.283240	94.249796	0.155858	-0.265991	0.151070	102.492639	19.860428	16.268416	-2.385343	39.095094	-16.620964	-36.765128	63.341022	13.231770	29.283702	39.530979	53.946572	7.510211	38.062523	59.054587	33.962892	-6.725274	73.709486	71.127497	26.285942	-9.227761	82.014617	57.634765
20.433333	-0.845308	-4.283240	94.249796	0.155858	-0.265991	0.151070	102.492639	19.860428	16.268416	-2.385343	39.095094	-16.620964	-36.765128	63.341022	13.231770	29.283702	39.530979	53.946572	7.510211	38.062523	59.054587	33.962892	-6.725274	73.709486	71.127497	26.285942	-9.227761	82.014617	57.634765
20.466667	-0.845308	-4.283240	94.249796	0.155858	-0.265991	0.151070	102.492639	19.860428	16.268416	-2.385343	39.095094	-16.620964	-36.765128	63.341022	13.231770	29.283702	39.530979	53.946572	7.510211	38.062523	59.054587	33.962892	-6.725274	73.709486	71.127497	26.285942	-9.227761	82.014617	57.634765
20.500000	-0.845308	-4.283240	94.249796	0.155858	-0.265991	0.151070	102.492639	19.860428	16.268416	-2.385343	39.095094	-16.620964	-36.765128	63.341022	13.231770	29.283702	39.530979	53.946572	7.510211	38.062523	59.054587	33.962892	-6.725274	73.709486	71.127497	26.285942	-9.227761	82.014617	57.634765
20.533333	-0.845308	-4.283240	94.249796	0.155858	-0.265991	0.151070	102.492639	19.860428	16.268416	-2.385343	39.095094	-16.620964	-36.765128	63.341022	13.231770	29.283702	39.530979	53.946572	7.510211	38.062523	59.054587	33.962892	-6.725274	73.709486	71.127497	26.285942	-9.227761	82.014617	57.634765
20.566667	-0.845308	-4.283240	94.249796	0.155858	-0.265991	0.151070	102.492639	19.860428	16.268416	-2.385343	39.095094	-16.620964	-36.765128	63.341022	13.231770	29.283702	39.530979	53.946572	7.510211	38.062523	59.054587	33.962892	-6.725274	73.709486	71.127497	26.285942	-9.227761	82.014617	57.634765
